<?xml version="1.0" encoding="UTF-8"?>
<svg width="960px" height="960px" viewBox="0 0 960 960" version="1.1" xmlns="http://www.w3.org/2000/svg" xmlns:xlink="http://www.w3.org/1999/xlink">
    <title>app/icon</title>
    <g id="app/icon" stroke="none" fill="none" fill-rule="evenodd">
        <path d="M565.497158,133.737715 L565.497166,134.284786 L565.499305,273.484865 L565.499312,273.951327 L565.033973,273.983669 C461.416815,281.185328 380.5,367.571249 380.5,472 C380.5,581.628523 469.371477,670.5 579,670.5 C683.057177,670.5 769.254358,590.141041 776.944406,486.964749 L776.978903,486.501915 L777.44302,486.501912 L916.673067,486.50105 L917.195384,486.501047 L917.172594,487.022866 C914.268026,553.529125 892.069119,616.590453 853.802824,669.676679 L906.519186,809.899734 L906.773308,810.575684 L602.04964,810.575684 L603.028593,809.702541 L603.092782,809.645288 C595.103363,810.217687 587.068687,810.5 579,810.5 C392.051612,810.5 240.5,658.948388 240.5,472 C240.5,302.700448 365.530016,160.06486 531.621114,136.790189 L564.952294,133.786811 L565.497158,133.737715 Z M185.5,133.5 L185.5,810.5 L57.5,810.5 L57.5,133.5 L185.5,133.5 Z M578.5,415.5 C609.980231,415.5 635.5,441.019769 635.5,472.5 C635.5,503.980231 609.980231,529.5 578.5,529.5 C547.019769,529.5 521.5,503.980231 521.5,472.5 C521.5,441.019769 547.019769,415.5 578.5,415.5 Z M583.501473,342.596387 L584.023017,342.618883 C651.069952,345.51086 704.236166,400.676531 704.499019,467.997522 L704.500979,468.499468 L703.999029,468.499474 L658.996006,468.5 L658.499792,468.500006 L658.496014,468.003806 L658.490153,467.231813 C657.843447,425.61396 625.332857,391.475541 583.967513,388.683882 L583.501178,388.65241 L583.501181,388.185014 L583.50147,343.118415 L583.501473,342.596387 Z M583.501595,270.57449 L584.016552,270.589899 C690.538677,273.777263 775.5,361.165317 775.5,468 L775.5,468.5 L729.5,468.5 L729.5,468 C729.5,386.557171 665.105524,319.765878 583.982408,316.615945 L583.50181,316.597284 L583.501808,316.116324 L583.501597,271.089677 L583.501595,270.57449 Z M583.501915,199.545098 L584.01197,199.555351 C730.058463,202.490954 847.23249,321.697841 847.499542,467.998339 L847.500457,468.499243 L846.999551,468.499252 L801.996008,468.5 L801.499973,468.500008 L801.496016,468.003989 L801.471006,464.866977 C799.561004,345.281373 703.476521,248.453406 583.990495,245.566266 L583.50258,245.554477 L583.502573,245.066419 L583.501922,200.055257 L583.501915,199.545098 Z M583.50168,133.54382 L584.010472,133.552759 C766.388941,136.756811 912.964055,285.365773 913.498533,467.996997 L913.5,468.498443 L912.998552,468.49846 L867.992017,468.5 L867.495984,468.500017 L867.492016,468.004 L867.462178,464.272263 C864.969939,308.608763 739.588764,182.719985 583.992298,179.560782 L583.502456,179.550837 L583.502448,179.060894 L583.501689,134.05269 L583.50168,133.54382 Z" id="Combined-Shape" fill="#000000"></path>
    </g>
</svg>