<?xml version="1.0" encoding="UTF-8"?>
<svg width="960px" height="960px" viewBox="0 0 960 960" version="1.1" xmlns="http://www.w3.org/2000/svg" xmlns:xlink="http://www.w3.org/1999/xlink">
    <title>driver/motion/icon</title>
    <g id="driver/motion/icon" stroke="none" fill="none">
        <path d="M681.474852,128.25733 C708.604562,253.661643 722.139189,350.950475 722.139189,419.824595 C722.139189,492.224889 707.23961,628.686803 677.430882,828.588082 C672.682506,860.431319 645.336913,884 613.139656,884 L350.436572,884 C310.016892,884 279.399345,847.4984 286.429324,807.692461 C315.653149,642.218052 330.285183,513.007005 330.285183,419.824595 C330.285183,337.894014 318.983724,250.391875 296.414701,157.316584 C286.494481,116.405319 317.487515,77 359.585078,77 L617.942296,77 C648.545928,77 675.003884,98.3459447 681.474852,128.25733 Z" id="Rectangle" stroke="#000000" stroke-width="30"></path>
        <path d="M339.997222,74.3253012 L223.139189,128.521239 L254.256535,837.874909 L322.49783,884.107536 C305.127435,857.175925 296.187333,835.331177 295.677525,818.573292 C295.078881,798.895266 307.948613,771.563156 313.027476,750.744189 C332.922759,669.190656 332.620571,469.20355 332.620571,370.381035 C332.620571,320.742249 292.93155,245.063368 295.677525,159.402033 C296.296734,140.085687 311.069966,111.726776 339.997222,74.3253012 Z" id="Path" stroke="#000000" stroke-width="10"></path>
        <path d="M653.12979,527.948579 C653.12979,548.591133 653.12979,548.591133 653.12979,579.953727 C653.12979,626.845791 640.828625,706.387124 616.211604,818.353248 C614.699114,825.23254 608.603633,830.13253 601.558587,830.13253 L364.40939,830.13253 C354.967949,830.13253 347.873545,821.517738 349.686103,812.253869 C366.417801,726.739243 374.791885,659.846101 374.791885,611.489169 L374.791885,527.951807 C374.791885,519.667536 381.507614,512.951807 389.791885,512.951807 L638.133211,512.951807 C646.414834,512.951807 653.12979,519.666853 653.12979,527.948579 Z" id="Rectangle-2" stroke="#000000" stroke-width="10"></path>
    </g>
</svg>