<?xml version="1.0" encoding="UTF-8"?>
<svg width="960px" height="960px" viewBox="0 0 960 960" version="1.1" xmlns="http://www.w3.org/2000/svg" xmlns:xlink="http://www.w3.org/1999/xlink">
    <title>driver/water/icon</title>
    <g id="driver/water/icon" stroke="none" fill="none">
        <rect id="Rectangle" stroke="#000000" stroke-width="30" x="346.796095" y="129" width="525" height="230" rx="80"></rect>
        <path d="M288.796095,540 C312.165893,540 333.195243,550.020645 347.821824,565.999614 L381.21138,566 C394.129424,566 406.252258,572.238627 413.760718,582.750472 C431.774298,607.969483 413.746967,643 382.755233,643 L368.795095,643 L368.796095,767 C368.796095,805.276577 341.91469,837.274665 306.000668,845.145474 L305.999867,813.961583 C325.138664,806.948296 338.796095,788.56908 338.796095,767 L338.796095,620 C338.796095,592.385763 316.410333,570 288.796095,570 L209.796095,570 C182.181858,570 159.796095,592.385763 159.796095,620 L159.796095,767 C159.796095,788.721577 173.647329,807.208024 192.999086,814.108631 L192.999129,845.233685 C156.881086,837.516453 129.796095,805.421246 129.796095,767 L129.795095,643 L111.796475,643 C81.839734,643 63.63547,609.982941 79.6247521,584.650172 C86.9523767,573.040581 99.7218722,566 113.450553,566 L150.770367,565.999614 C165.396948,550.020645 186.426298,540 209.796095,540 L288.796095,540 Z M286,768 C297.045695,768 306,776.954305 306,788 L306,845 L296,845 L296,807 L296,788 C296,782.477153 291.522847,778 286,778 L213,778 C207.477153,778 203,782.477153 203,788 L203,807 L203,845 L193,845 L193,788 C193,776.954305 201.954305,768 213,768 L286,768 Z M113.450553,576 C103.154042,576 93.5769208,581.280436 88.0812024,589.987629 C76.2947592,608.661591 89.7139685,633 111.796475,633 L129.795095,632.999 L129.796095,620 C129.796095,603.861726 134.574688,588.839552 142.794104,576.271246 L142.796095,576 L113.450553,576 Z M356.796096,576 L356.795905,577.836308 C364.402961,590.078658 368.796095,604.526293 368.796095,620 L368.795095,632.999 L382.755233,633 C405.613241,633 418.909331,607.16318 405.623384,588.562854 L404.52765,587.122543 C398.853193,580.112376 390.294379,576 381.21138,576 L356.796096,576 Z" id="Combined-Shape" fill="#000000" fill-rule="evenodd"></path>
        <path d="M221,775 L238,775 L238,817.5 C238,822.19442 234.19442,826 229.5,826 C224.80558,826 221,822.19442 221,817.5 L221,775 Z" id="Rectangle-5" fill="#000000" fill-rule="evenodd"></path>
        <path d="M257,775 L274,775 L274,817.5 C274,822.19442 270.19442,826 265.5,826 C260.80558,826 257,822.19442 257,817.5 L257,775 Z" id="Rectangle-6" fill="#000000" fill-rule="evenodd"></path>
        <path d="M238,560 C224.76709,471.834232 221.373405,412.60888 227.818947,382.323944 C240.068427,324.768706 279.994208,278.660725 347.59629,244" id="Path" stroke="#000000" stroke-width="10"></path>
    </g>
</svg>